<svg class="svg-icon" style="width: 1em; height: 1em;vertical-align: middle;fill: currentColor;overflow: hidden;" viewBox="0 0 1024 1024" version="1.1" xmlns="http://www.w3.org/2000/svg"><path d="M851.2 373.12A331.52 331.52 0 0 0 192 351.36a332.16 332.16 0 0 0 170.88 616.96 334.08 334.08 0 0 0 142.08-32.64 330.24 330.24 0 0 0 158.72 41.6 334.72 334.72 0 0 0 86.4-11.52 331.52 331.52 0 0 0 101.12-592.64zM519.68 111.36a268.8 268.8 0 0 1 268.8 268.8V384a265.6 265.6 0 0 1-140.8 227.84 32 32 0 1 0 30.72 56.32 333.44 333.44 0 0 0 137.6-142.72 192 192 0 0 1-248.96 281.6 186.24 186.24 0 0 1-46.08-38.4 192 192 0 0 1-42.88-172.8 208 208 0 0 0 42.24 5.12 229.76 229.76 0 0 0 46.72-5.12A224 224 0 0 0 731.52 448a222.72 222.72 0 0 0-423.68-139.52A328.32 328.32 0 0 0 256 320a266.88 266.88 0 0 1 263.68-208.64z m-4.48 410.24a195.84 195.84 0 0 1 12.8 17.92 170.88 170.88 0 0 1 12.8 30.08 174.72 174.72 0 0 1-54.4 0 195.84 195.84 0 0 1 8.32-19.2 176 176 0 0 1 20.48-28.8zM128 768a268.8 268.8 0 0 1 99.84-365.44 268.8 268.8 0 0 1 267.52 8.32 31.36 31.36 0 0 0 16.64 4.48 32 32 0 0 0 16.64-59.52 334.08 334.08 0 0 0-192-48 192 192 0 0 1 368 74.88 187.52 187.52 0 0 1-10.24 58.88 192 192 0 0 1-128 123.52 208.64 208.64 0 0 0-16.64-39.68 225.28 225.28 0 0 0-27.52-37.76 223.36 223.36 0 0 0-206.72-70.4 220.8 220.8 0 0 0-64 24.32 224 224 0 0 0 112.64 417.92 220.8 220.8 0 0 0 44.16-4.48 328.96 328.96 0 0 0 35.2 36.48A266.24 266.24 0 0 1 128 768z m768 8.32a268.8 268.8 0 0 1-368 100.48l-6.4-4.48a265.6 265.6 0 0 1-128-235.52 32 32 0 0 0-31.36-32.64 33.28 33.28 0 0 0-32.64 31.36 333.44 333.44 0 0 0 54.4 192A192 192 0 0 1 320 448a192 192 0 0 1 171.52 49.28 210.56 210.56 0 0 0-25.6 33.92A225.28 225.28 0 0 0 448 576a224 224 0 0 0 47.36 217.6 219.52 219.52 0 0 0 53.76 44.8A223.36 223.36 0 0 0 832 496.64a328.32 328.32 0 0 0 11.52-48.64 266.24 266.24 0 0 1 52.48 330.24z" fill="#1B213F" /></svg>